<svg xmlns="http://www.w3.org/2000/svg" xmlns:xlink="http://www.w3.org/1999/xlink" viewBox="0 0 40 40"><defs><radialGradient id="a" cx="-274.99" cy="447.91" r="1" gradientTransform="matrix(-42.36, 51.55, 51.55, 42.36, -34699.46, -4802.3)" gradientUnits="userSpaceOnUse"><stop offset="0" stop-color="#e84d70"/><stop offset="0.53" stop-color="#a337f6"/><stop offset="1" stop-color="#28a7ed"/></radialGradient></defs><circle cx="20" cy="20" r="20" fill="url(#a)"/><path d="M20.5,14.5,23.3,12,28,16.4,25.4,19l-4.9-4.5ZM11,28.7l2.5-9.9,6-3.4,5,4.5-3.8,5.5L11.2,29l4.5-4.1a2.4,2.4,0,0,0,2.4-.6,1.9,1.9,0,0,0-.1-2.8,2.1,2.1,0,0,0-3,.1,2.4,2.4,0,0,0-.4,2.3Z" transform="translate(0 0)" fill="#fff" fill-rule="evenodd"/></svg>